{"title":"Blazing Saddles 1979 DVDRip XviD MP3-brydon10","uid":5197565,"size":734096734,"categoryP":"video","categoryS":"movies","magnet":"?xt=urn:btih:f537482d6c6da359c3a9b5de82b2393c14b27ee7&amp;dn=Blazing+Saddles+1979+DVDRip+XviD+MP3-brydon10&amp;tr=udp%3A%2F%2Ftracker.openbittorrent.com%3A80&amp;tr=udp%3A%2F%2Fopen.demonii.com%3A1337&amp;tr=udp%3A%2F%2Ftracker.coppersurfer.tk%3A6969&amp;tr=udp%3A%2F%2Fexodus.desync.com%3A6969","seeders":1,"leechers":0,"uploader":"brydon100","files":-1,"time":1259996380,"description":"Blazing Saddles (1974)\n\nThe Ultimate Western Spoof. A town where everyone seems to be named Johnson is in the way of the railroad. In order to grab their land, Hedley Lemar, a politically connected nasty person, sends in his henchmen to make the town unlivable. After the sheriff is killed, the town demands a new sheriff from the Governor. Hedley convinces him to send the town the first Black sheriff in the west. Bart is a sophisticated urbanite who will have some difficulty winning over the townspeople.\n\nVideo\nID                               : 0\nFormat                           : MPEG-4 Visual\nFormat profile                   : AdvancedSimple@L5\nFormat settings, BVOP            : Yes\nFormat settings, QPel            : No\nFormat settings, GMC             : No warppoints\nFormat settings, Matrix          : Custom\nCodec ID                         : XVID\nCodec ID/Hint                    : XviD\nDuration                         : 1h 32mn\nBit rate                         : 982 Kbps\nWidth                            : 720 pixels\nHeight                           : 320 pixels\nDisplay aspect ratio             : 2.25:1\nFrame rate                       : 23.976 fps\nResolution                       : 24 bits\nColorimetry                      : 4:2:0\nScan type                        : Progressive\nBits/(Pixel*Frame)               : 0.178\nStream size                      : 652 MiB (93%)\nWriting library                  : XviD 1.2.1 (UTC 2008-12-04)\n\nAudio\nID                               : 1\nFormat                           : MPEG Audio\nFormat version                   : Version 1\nFormat profile                   : Layer 3\nCodec ID                         : 55\nCodec ID/Hint                    : MP3\nDuration                         : 1h 32mn\nBit rate mode                    : Variable\nBit rate                         : 60.1 Kbps\nChannel(s)                       : 1 channel\nSampling rate                    : 48.0 KHz\nResolution                       : 16 bits\nStream size                      : 39.9 MiB (6%)\nAlignment                        : Aligned on interleaves\nInterleave, duration             : 24 ms (0.58 video frame)\nInterleave, preload duration     : 457 ms\nLanguage                         : English","torrent":{"xt":"urn:btih:f537482d6c6da359c3a9b5de82b2393c14b27ee7","amp;dn":"Blazing+Saddles+1979+DVDRip+XviD+MP3-brydon10","amp;tr":["udp%3A%2F%2Ftracker.openbittorrent.com%3A80","udp%3A%2F%2Fopen.demonii.com%3A1337","udp%3A%2F%2Ftracker.coppersurfer.tk%3A6969","udp%3A%2F%2Fexodus.desync.com%3A6969"],"infoHash":"f537482d6c6da359c3a9b5de82b2393c14b27ee7","infoHashBuffer":{"type":"Buffer","data":[245,55,72,45,108,109,163,89,195,169,181,222,130,178,57,60,20,178,126,231]},"announce":[],"urlList":[]}}